<svg width="56" height="56" viewBox="0 0 56 56" fill="none" xmlns="http://www.w3.org/2000/svg">
<path d="M24.8042 0.44265C12.159 1.84411 1.855 12.0475 0.329291 24.6729C0.279999 25.0692 0.239166 25.4665 0.206791 25.8646C0.174416 26.2627 0.150791 26.6612 0.135332 27.0604C0.120166 27.4594 0.113457 27.8587 0.115499 28.258C0.117249 28.6576 0.127749 29.0566 0.146708 29.4556C0.165666 29.8546 0.193374 30.253 0.229249 30.6509C0.265416 31.0487 0.310041 31.4454 0.363124 31.8412C0.416207 32.2372 0.477749 32.6316 0.547749 33.025C0.617749 33.4182 0.695916 33.8096 0.782832 34.1996C0.869457 34.5895 0.964541 34.9772 1.06808 35.363C1.17133 35.7489 1.28304 36.1322 1.40292 36.5134C1.5225 36.8943 1.65054 37.2726 1.78646 37.6482C1.92267 38.0236 2.06646 38.3961 2.21871 38.7653C2.37067 39.1349 2.5305 39.5006 2.69821 39.8632C2.86562 40.2257 3.04121 40.5844 3.22408 40.9394C3.40725 41.2947 3.59771 41.6455 3.79575 41.9923C3.99379 42.3391 4.19942 42.6815 4.41204 43.0196C4.62496 43.3576 4.84487 43.691 5.07179 44.0194C5.299 44.3481 5.53292 44.6716 5.77383 44.9904C6.01475 45.3089 6.26237 45.6221 6.51671 45.9301C6.77104 46.2381 7.03179 46.5403 7.29896 46.8372C7.56642 47.1338 7.84 47.4249 8.11971 47.7099C8.39942 47.9951 8.68525 48.2739 8.97692 48.5467C9.26858 48.8197 9.56608 49.0859 9.86912 49.3461C10.1725 49.606 10.481 49.8594 10.7949 50.1065C11.109 50.3532 11.4281 50.5933 11.7524 50.8263C12.0767 51.0597 12.4057 51.2857 12.7397 51.5047C13.0737 51.7238 13.4123 51.9355 13.7553 52.1403C14.0983 52.3447 14.4457 52.5419 14.7971 52.7315C15.1486 52.9211 15.5041 53.1034 15.8632 53.2778C16.2225 53.4522 16.5853 53.6187 16.952 53.7777C17.3183 53.9367 17.6881 54.0874 18.0609 54.2307C18.4339 54.3736 18.8096 54.5086 19.1885 54.6355C20.5841 54.8586 21.03 53.9941 21.03 53.2419V48.5283C13.3061 50.2059 11.6617 44.7935 11.6617 44.7935C10.3825 41.558 8.56654 40.6935 8.56654 40.6935C6.02787 38.9642 8.764 39.0217 8.764 39.0217C11.5512 39.2189 13.0296 41.8937 13.0296 41.8937C15.4557 46.1317 19.5536 44.8763 21.1426 44.2072C21.3932 42.3951 22.1296 41.1672 22.8993 40.4704C16.6991 39.7736 10.211 37.3752 10.211 26.7533C10.211 23.6582 11.2709 21.1769 13.083 19.1971C12.8047 18.5003 11.8274 15.6006 13.3612 11.8363C13.3612 11.8363 15.7042 11.0821 21.03 14.6807C22.1664 14.3747 23.3182 14.1446 24.4848 13.9903C25.6515 13.836 26.8231 13.7587 28 13.7587C29.1769 13.7587 30.3488 13.836 31.5155 13.9903C32.6821 14.1446 33.8336 14.3747 34.9702 14.6807C40.2999 11.0821 42.639 11.8363 42.639 11.8363C44.1709 15.6006 43.1955 18.5003 42.9173 19.1971C44.7294 21.1711 45.7893 23.6582 45.7893 26.7533C45.7893 37.4029 39.2636 39.7459 33.0476 40.4427C34.0503 41.3075 34.9702 43.0091 34.9702 45.6008V53.2419C34.9702 53.9941 35.4162 54.8863 36.8395 54.6355C37.2438 54.5002 37.6445 54.3555 38.0421 54.2018C38.4396 54.0478 38.8337 53.885 39.2236 53.7132C39.6139 53.5415 39.9998 53.3606 40.3815 53.171C40.7633 52.9814 41.1407 52.7834 41.5135 52.5766C41.8862 52.3698 42.254 52.1546 42.6169 51.9309C42.9797 51.7072 43.3373 51.4753 43.6896 51.2352C44.0417 50.9952 44.3885 50.747 44.7291 50.4912C45.0701 50.2351 45.4049 49.9717 45.7339 49.7002C46.0626 49.4289 46.3849 49.1504 46.7011 48.8643C47.0172 48.5782 47.3264 48.285 47.6292 47.9849C47.9316 47.6845 48.2274 47.3777 48.5158 47.0638C48.8043 46.75 49.0855 46.4297 49.3593 46.1031C49.6332 45.7764 49.8995 45.4436 50.1582 45.105C50.4169 44.7661 50.6675 44.4213 50.9104 44.071C51.1531 43.7207 51.3879 43.3649 51.6145 43.0038C51.8408 42.6427 52.059 42.2767 52.269 41.9057C52.4787 41.5344 52.6797 41.1587 52.8725 40.7784C53.065 40.3981 53.2487 40.0137 53.4234 39.6249C53.5984 39.2361 53.7644 38.8435 53.9213 38.4471C54.0782 38.051 54.2261 37.6512 54.3646 37.2481C54.5032 36.845 54.6327 36.439 54.7525 36.0298C54.8727 35.6209 54.9832 35.2093 55.0845 34.7952C55.1857 34.381 55.2773 33.9648 55.3592 33.5465C55.4415 33.1283 55.5138 32.7083 55.5768 32.2865C55.6395 31.8651 55.6926 31.4422 55.736 31.0181C55.7795 30.594 55.8133 30.1693 55.8372 29.7435C55.8615 29.3179 55.8755 28.8921 55.8801 28.4657C55.8845 28.0396 55.8792 27.6134 55.8644 27.1873C55.8492 26.7615 55.8244 26.3359 55.79 25.911C55.7553 25.4863 55.7112 25.0622 55.6573 24.6396C55.6033 24.2167 55.5397 23.7952 55.4662 23.3752C55.393 22.9552 55.3102 22.5373 55.2177 22.1211C55.1253 21.7052 55.0235 21.2913 54.9121 20.8797C54.8007 20.4682 54.6799 20.0596 54.5498 19.6536C54.4197 19.2476 54.2806 18.8451 54.1319 18.4455C53.9834 18.0459 53.8256 17.6498 53.6591 17.2575C53.4923 16.8652 53.3167 16.477 53.1323 16.0926C52.9477 15.7085 52.7546 15.3284 52.5525 14.9531C52.3507 14.5777 52.1404 14.207 51.9213 13.8412C51.7026 13.4755 51.4754 13.1147 51.24 12.7594C51.0046 12.4042 50.7611 12.0542 50.5097 11.71C50.2582 11.3659 49.9993 11.0275 49.7324 10.695C49.4652 10.3628 49.191 10.0367 48.909 9.71678C48.6272 9.39711 48.3382 9.08386 48.0419 8.77732C47.7455 8.47078 47.4425 8.17123 47.1328 7.87869C46.8227 7.58586 46.5063 7.30061 46.1831 7.02236C45.8602 6.7444 45.5309 6.47373 45.1955 6.21065C44.8601 5.94757 44.5188 5.69236 44.1718 5.44473C43.8247 5.1974 43.472 4.95823 43.1139 4.72694C42.7557 4.49565 42.3926 4.27253 42.0242 4.05786C41.6558 3.84348 41.2828 3.63728 40.9051 3.43982C40.5274 3.24207 40.1453 3.05336 39.7588 2.8734C39.3727 2.69344 38.9821 2.52223 38.5881 2.36007C38.1938 2.1979 37.7959 2.04507 37.3949 1.90098C36.9935 1.75719 36.5893 1.62244 36.1818 1.49702C35.7744 1.37161 35.3643 1.25552 34.9516 1.14907C34.5389 1.04232 34.1238 0.945483 33.7067 0.857691C33.2894 0.770191 32.8705 0.692025 32.4497 0.623775C32.0291 0.555525 31.6067 0.496608 31.1835 0.447608C30.76 0.398608 30.3357 0.359233 29.9104 0.329483C29.4852 0.300025 29.0593 0.280191 28.6332 0.269983C28.2071 0.260066 27.781 0.259483 27.3548 0.269108C26.9284 0.278441 26.5029 0.297691 26.0776 0.326566C25.6524 0.355441 25.2277 0.394233 24.8042 0.44265Z" fill="#8F8F8F"/>
</svg>
