<svg width="56" height="56" viewBox="0 0 56 56" fill="none" xmlns="http://www.w3.org/2000/svg">
<g clip-path="url(#clip0_10_25)">
<path d="M28 21.7939C24.582 21.7939 21.7939 24.582 21.7939 28C21.7939 31.4181 24.582 34.2061 28 34.2061C31.418 34.2061 34.2061 31.4181 34.2061 28C34.2061 24.582 31.418 21.7939 28 21.7939Z" fill="#8F8F8F"/>
<path d="M36.3393 12.7759H19.6607C15.8789 12.7759 12.7759 15.8544 12.7759 19.6607V36.3393C12.7759 40.1211 15.8544 43.2241 19.6607 43.2241H36.3393C40.1211 43.2241 43.2241 40.1456 43.2241 36.3393V19.6607C43.1999 15.8544 40.1211 12.7759 36.3393 12.7759ZM28 37.3333C22.8363 37.3333 18.6425 33.1395 18.6425 27.9758C18.6425 22.8121 22.8363 18.6183 28 18.6183C33.1637 18.6183 37.3575 22.8121 37.3575 27.9758C37.3333 33.1395 33.1395 37.3333 28 37.3333ZM38.012 20.1938C36.7757 20.1938 35.7575 19.1756 35.7575 17.9393C35.7575 16.7032 36.7757 15.685 38.012 15.685C39.2484 15.685 40.2666 16.7032 40.2666 17.9393C40.2666 19.2001 39.2726 20.1938 38.012 20.1938Z" fill="#8F8F8F"/>
<path d="M28 0C12.5332 0 0 12.5332 0 28C0 43.4668 12.5332 56 28 56C43.4668 56 56 43.4668 56 28C55.9758 12.5332 43.4423 0 28 0ZM46.3514 36.3393C46.3514 41.8667 41.8425 46.3759 36.3151 46.3759H19.6607C14.1333 46.3759 9.62412 41.8667 9.62412 36.3393V19.6607C9.62412 14.1333 14.1333 9.62412 19.6607 9.62412H36.3393C41.8667 9.62412 46.3759 14.1333 46.3759 19.6607V36.3393H46.3514Z" fill="#8F8F8F"/>
</g>
<defs>
<clipPath id="clip0_10_25">
<rect width="56" height="56" fill="white"/>
</clipPath>
</defs>
</svg>
